<?xml version="1.0" encoding="utf-8" standalone="no"?>
<!DOCTYPE svg PUBLIC "-//W3C//DTD SVG 1.1//EN"
  "http://www.w3.org/Graphics/SVG/1.1/DTD/svg11.dtd">
<svg xmlns:xlink="http://www.w3.org/1999/xlink" width="376.605625pt" height="374.690625pt" viewBox="0 0 376.605625 374.690625" xmlns="http://www.w3.org/2000/svg" version="1.1">
 <metadata>
  <rdf:RDF xmlns:dc="http://purl.org/dc/elements/1.1/" xmlns:cc="http://creativecommons.org/ns#" xmlns:rdf="http://www.w3.org/1999/02/22-rdf-syntax-ns#">
   <cc:Work>
    <dc:type rdf:resource="http://purl.org/dc/dcmitype/StillImage"/>
    <dc:date>2026-03-26T12:04:30.365139</dc:date>
    <dc:format>image/svg+xml</dc:format>
    <dc:creator>
     <cc:Agent>
      <dc:title>Matplotlib v3.10.1, https://matplotlib.org/</dc:title>
     </cc:Agent>
    </dc:creator>
   </cc:Work>
  </rdf:RDF>
 </metadata>
 <defs>
  <style type="text/css">*{stroke-linejoin: round; stroke-linecap: butt}</style>
 </defs>
 <g id="figure_1">
  <g id="patch_1">
   <path d="M 0 374.690625 
L 376.605625 374.690625 
L 376.605625 0 
L 0 0 
z
" style="fill: #ffffff"/>
  </g>
  <g id="axes_1">
   <g id="patch_2">
    <path d="M 92.825625 340.7 
L 369.405625 340.7 
L 369.405625 7.2 
L 92.825625 7.2 
z
" style="fill: #ffffff"/>
   </g>
   <g id="matplotlib.axis_1">
    <g id="xtick_1">
     <g id="text_1">
      <text style="font-size: 20px; font-family: 'Arial'; text-anchor: middle; fill: #262626" x="161.272191" y="363.515625" transform="rotate(-0 161.272191 363.515625)">X axis</text>
     </g>
    </g>
    <g id="xtick_2">
     <g id="text_2">
      <text style="font-size: 20px; font-family: 'Arial'; text-anchor: middle; fill: #262626" x="300.959059" y="363.515625" transform="rotate(-0 300.959059 363.515625)">Y axis</text>
     </g>
    </g>
   </g>
   <g id="matplotlib.axis_2">
    <g id="ytick_1">
     <g id="line2d_1">
      <path d="M 92.825625 323.95539 
L 369.405625 323.95539 
" clip-path="url(#p9db996b98c)" style="fill: none; stroke-dasharray: 2.59,1.12; stroke-dashoffset: 0; stroke: #999999; stroke-opacity: 0.35; stroke-width: 0.7"/>
     </g>
     <g id="text_3">
      <text style="font-size: 20px; font-family: 'Arial'; text-anchor: end; fill: #262626" x="84.325625" y="331.113202" transform="rotate(-0 84.325625 331.113202)">−10.0</text>
     </g>
    </g>
    <g id="ytick_2">
     <g id="line2d_2">
      <path d="M 92.825625 279.73495 
L 369.405625 279.73495 
" clip-path="url(#p9db996b98c)" style="fill: none; stroke-dasharray: 2.59,1.12; stroke-dashoffset: 0; stroke: #999999; stroke-opacity: 0.35; stroke-width: 0.7"/>
     </g>
     <g id="text_4">
      <text style="font-size: 20px; font-family: 'Arial'; text-anchor: end; fill: #262626" x="84.325625" y="286.892763" transform="rotate(-0 84.325625 286.892763)">−7.5</text>
     </g>
    </g>
    <g id="ytick_3">
     <g id="line2d_3">
      <path d="M 92.825625 235.51451 
L 369.405625 235.51451 
" clip-path="url(#p9db996b98c)" style="fill: none; stroke-dasharray: 2.59,1.12; stroke-dashoffset: 0; stroke: #999999; stroke-opacity: 0.35; stroke-width: 0.7"/>
     </g>
     <g id="text_5">
      <text style="font-size: 20px; font-family: 'Arial'; text-anchor: end; fill: #262626" x="84.325625" y="242.672323" transform="rotate(-0 84.325625 242.672323)">−5.0</text>
     </g>
    </g>
    <g id="ytick_4">
     <g id="line2d_4">
      <path d="M 92.825625 191.294071 
L 369.405625 191.294071 
" clip-path="url(#p9db996b98c)" style="fill: none; stroke-dasharray: 2.59,1.12; stroke-dashoffset: 0; stroke: #999999; stroke-opacity: 0.35; stroke-width: 0.7"/>
     </g>
     <g id="text_6">
      <text style="font-size: 20px; font-family: 'Arial'; text-anchor: end; fill: #262626" x="84.325625" y="198.451883" transform="rotate(-0 84.325625 198.451883)">−2.5</text>
     </g>
    </g>
    <g id="ytick_5">
     <g id="line2d_5">
      <path d="M 92.825625 147.073631 
L 369.405625 147.073631 
" clip-path="url(#p9db996b98c)" style="fill: none; stroke-dasharray: 2.59,1.12; stroke-dashoffset: 0; stroke: #999999; stroke-opacity: 0.35; stroke-width: 0.7"/>
     </g>
     <g id="text_7">
      <text style="font-size: 20px; font-family: 'Arial'; text-anchor: end; fill: #262626" x="84.325625" y="154.231444" transform="rotate(-0 84.325625 154.231444)">0.0</text>
     </g>
    </g>
    <g id="ytick_6">
     <g id="line2d_6">
      <path d="M 92.825625 102.853191 
L 369.405625 102.853191 
" clip-path="url(#p9db996b98c)" style="fill: none; stroke-dasharray: 2.59,1.12; stroke-dashoffset: 0; stroke: #999999; stroke-opacity: 0.35; stroke-width: 0.7"/>
     </g>
     <g id="text_8">
      <text style="font-size: 20px; font-family: 'Arial'; text-anchor: end; fill: #262626" x="84.325625" y="110.011004" transform="rotate(-0 84.325625 110.011004)">2.5</text>
     </g>
    </g>
    <g id="ytick_7">
     <g id="line2d_7">
      <path d="M 92.825625 58.632752 
L 369.405625 58.632752 
" clip-path="url(#p9db996b98c)" style="fill: none; stroke-dasharray: 2.59,1.12; stroke-dashoffset: 0; stroke: #999999; stroke-opacity: 0.35; stroke-width: 0.7"/>
     </g>
     <g id="text_9">
      <text style="font-size: 20px; font-family: 'Arial'; text-anchor: end; fill: #262626" x="84.325625" y="65.790564" transform="rotate(-0 84.325625 65.790564)">5.0</text>
     </g>
    </g>
    <g id="ytick_8">
     <g id="line2d_8">
      <path d="M 92.825625 14.412312 
L 369.405625 14.412312 
" clip-path="url(#p9db996b98c)" style="fill: none; stroke-dasharray: 2.59,1.12; stroke-dashoffset: 0; stroke: #999999; stroke-opacity: 0.35; stroke-width: 0.7"/>
     </g>
     <g id="text_10">
      <text style="font-size: 20px; font-family: 'Arial'; text-anchor: end; fill: #262626" x="84.325625" y="21.570125" transform="rotate(-0 84.325625 21.570125)">7.5</text>
     </g>
    </g>
    <g id="text_11">
     <text style="font-size: 24px; font-family: 'Arial'; text-anchor: middle; fill: #262626" x="24.67125" y="173.95" transform="rotate(-90 24.67125 173.95)">Error (mm)</text>
    </g>
   </g>
   <g id="FillBetweenPolyCollection_1">
    <path d="M 161.313262 181.805835 
L 161.231119 181.805835 
L 161.238899 180.476956 
L 161.24181 179.148076 
L 161.212101 177.819197 
L 161.165735 176.490317 
L 161.145781 175.161438 
L 161.158634 173.832558 
L 161.154552 172.503678 
L 161.049823 171.174799 
L 160.836952 169.845919 
L 160.678443 168.51704 
L 160.641055 167.18816 
L 160.497745 165.859281 
L 160.062954 164.530401 
L 159.425235 163.201522 
L 158.893571 161.872642 
L 158.801217 160.543762 
L 158.91798 159.214883 
L 158.578959 157.886003 
L 157.791622 156.557124 
L 157.357127 155.228244 
L 157.464914 153.899365 
L 156.852641 152.570485 
L 152.461278 151.241606 
L 138.717295 149.912726 
L 116.578285 148.583847 
L 105.397443 147.254967 
L 119.206998 145.926087 
L 141.355755 144.597208 
L 153.549791 143.268328 
L 156.929319 141.939449 
L 157.571547 140.610569 
L 157.972158 139.28169 
L 158.48071 137.95281 
L 158.898434 136.623931 
L 159.20394 135.295051 
L 159.417 133.966171 
L 159.433517 132.637292 
L 159.288673 131.308412 
L 159.277631 129.979533 
L 159.597028 128.650653 
L 160.048855 127.321774 
L 160.356213 125.992894 
L 160.474586 124.664015 
L 160.47639 123.335135 
L 160.422773 122.006256 
L 160.42771 120.677376 
L 160.595494 119.348496 
L 160.832868 118.019617 
L 160.984131 116.690737 
L 161.043826 115.361858 
L 161.105417 114.032978 
L 161.189279 112.704099 
L 161.247321 111.375219 
L 161.267892 110.04634 
L 161.271773 108.71746 
L 161.272168 107.38858 
L 161.27219 106.059701 
L 161.272191 104.730821 
L 161.272191 103.401942 
L 161.272191 102.073062 
L 161.272191 100.744183 
L 161.272191 99.415303 
L 161.272191 98.086424 
L 161.272191 96.757544 
L 161.272191 95.428665 
L 161.272191 94.099785 
L 161.272191 92.770905 
L 161.272191 91.442026 
L 161.272191 90.113146 
L 161.272191 88.784267 
L 161.272191 87.455387 
L 161.27219 86.126508 
L 161.27218 84.797628 
L 161.271966 83.468749 
L 161.269531 82.139869 
L 161.255148 80.810989 
L 161.213044 79.48211 
L 161.160924 78.15323 
L 161.158661 76.824351 
L 161.209328 75.495471 
L 161.253294 74.166592 
L 161.269106 72.837712 
L 161.271917 71.508833 
L 161.272177 70.179953 
L 161.27219 68.851074 
L 161.272191 67.522194 
L 161.272191 66.193314 
L 161.272191 64.864435 
L 161.272191 63.535555 
L 161.272191 62.206676 
L 161.272191 60.877796 
L 161.272191 59.548917 
L 161.27219 58.220037 
L 161.272173 56.891158 
L 161.271904 55.562278 
L 161.269685 54.233398 
L 161.260398 52.904519 
L 161.242319 51.575639 
L 161.23147 50.24676 
L 161.312911 50.24676 
L 161.312911 50.24676 
L 161.302063 51.575639 
L 161.283983 52.904519 
L 161.274696 54.233398 
L 161.272477 55.562278 
L 161.272208 56.891158 
L 161.272191 58.220037 
L 161.272191 59.548917 
L 161.272191 60.877796 
L 161.272191 62.206676 
L 161.272191 63.535555 
L 161.272191 64.864435 
L 161.272191 66.193314 
L 161.272191 67.522194 
L 161.272191 68.851074 
L 161.272204 70.179953 
L 161.272464 71.508833 
L 161.275275 72.837712 
L 161.291087 74.166592 
L 161.335053 75.495471 
L 161.38572 76.824351 
L 161.383458 78.15323 
L 161.331337 79.48211 
L 161.289233 80.810989 
L 161.274851 82.139869 
L 161.272415 83.468749 
L 161.272201 84.797628 
L 161.272191 86.126508 
L 161.272191 87.455387 
L 161.272191 88.784267 
L 161.272191 90.113146 
L 161.272191 91.442026 
L 161.272191 92.770905 
L 161.272191 94.099785 
L 161.272191 95.428665 
L 161.272191 96.757544 
L 161.272191 98.086424 
L 161.272191 99.415303 
L 161.272191 100.744183 
L 161.272191 102.073062 
L 161.272191 103.401942 
L 161.272191 104.730821 
L 161.272191 106.059701 
L 161.272213 107.38858 
L 161.272609 108.71746 
L 161.276489 110.04634 
L 161.29706 111.375219 
L 161.355102 112.704099 
L 161.438964 114.032978 
L 161.500555 115.361858 
L 161.560251 116.690737 
L 161.711513 118.019617 
L 161.948887 119.348496 
L 162.116671 120.677376 
L 162.121608 122.006256 
L 162.067991 123.335135 
L 162.069795 124.664015 
L 162.188169 125.992894 
L 162.495526 127.321774 
L 162.947353 128.650653 
L 163.26675 129.979533 
L 163.255708 131.308412 
L 163.110864 132.637292 
L 163.127382 133.966171 
L 163.340441 135.295051 
L 163.645947 136.623931 
L 164.063671 137.95281 
L 164.572224 139.28169 
L 164.972834 140.610569 
L 165.615063 141.939449 
L 168.99459 143.268328 
L 181.188626 144.597208 
L 203.337383 145.926087 
L 217.146938 147.254967 
L 205.966096 148.583847 
L 183.827086 149.912726 
L 170.083104 151.241606 
L 165.69174 152.570485 
L 165.079468 153.899365 
L 165.187255 155.228244 
L 164.752759 156.557124 
L 163.965422 157.886003 
L 163.626401 159.214883 
L 163.743164 160.543762 
L 163.650811 161.872642 
L 163.119146 163.201522 
L 162.481427 164.530401 
L 162.046636 165.859281 
L 161.903326 167.18816 
L 161.865938 168.51704 
L 161.707429 169.845919 
L 161.494558 171.174799 
L 161.38983 172.503678 
L 161.385747 173.832558 
L 161.3986 175.161438 
L 161.378647 176.490317 
L 161.33228 177.819197 
L 161.302572 179.148076 
L 161.305482 180.476956 
L 161.313262 181.805835 
z
" clip-path="url(#p9db996b98c)" style="fill: #4e73ae"/>
   </g>
   <g id="FillBetweenPolyCollection_2">
    <path d="M 301.018948 317.7 
L 300.899171 317.7 
L 300.899404 314.79596 
L 300.89775 311.891919 
L 300.880151 308.987879 
L 300.850241 306.083838 
L 300.828242 303.179798 
L 300.827956 300.275758 
L 300.843048 297.371717 
L 300.855167 294.467677 
L 300.83897 291.563636 
L 300.762428 288.659596 
L 300.615904 285.755556 
L 300.452593 282.851515 
L 300.362841 279.947475 
L 300.387681 277.043434 
L 300.490397 274.139394 
L 300.612744 271.235354 
L 300.711731 268.331313 
L 300.754977 265.427273 
L 300.735157 262.523232 
L 300.686638 259.619192 
L 300.656176 256.715152 
L 300.663009 253.811111 
L 300.70143 250.907071 
L 300.758487 248.00303 
L 300.81159 245.09899 
L 300.833965 242.194949 
L 300.818049 239.290909 
L 300.77843 236.386869 
L 300.730676 233.482828 
L 300.682407 230.578788 
L 300.628641 227.674747 
L 300.520036 224.770707 
L 300.260735 221.866667 
L 299.815 218.962626 
L 299.321695 216.058586 
L 299.008315 213.154545 
L 298.964439 210.250505 
L 299.094009 207.346465 
L 299.257282 204.442424 
L 299.290594 201.538384 
L 298.949554 198.634343 
L 298.093219 195.730303 
L 296.939193 192.826263 
L 295.885524 189.922222 
L 295.057098 187.018182 
L 294.287321 184.114141 
L 293.452701 181.210101 
L 292.45955 178.306061 
L 291.04061 175.40202 
L 288.970944 172.49798 
L 286.44374 169.593939 
L 283.953358 166.689899 
L 281.794232 163.785859 
L 279.627838 160.881818 
L 276.058651 157.977778 
L 268.901052 155.073737 
L 257.825043 152.169697 
L 247.493903 149.265657 
L 245.084312 146.361616 
L 252.694378 143.457576 
L 264.980613 140.553535 
L 275.499603 137.649495 
L 282.248949 134.745455 
L 286.602682 131.841414 
L 290.099554 128.937374 
L 293.294928 126.033333 
L 296.107494 123.129293 
L 298.28495 120.225253 
L 299.699805 117.321212 
L 300.453477 114.417172 
L 300.776263 111.513131 
L 300.873595 108.609091 
L 300.865876 105.705051 
L 300.818554 102.80101 
L 300.778602 99.89697 
L 300.769067 96.992929 
L 300.775309 94.088889 
L 300.773282 91.184848 
L 300.769886 88.280808 
L 300.791405 85.376768 
L 300.839858 82.472727 
L 300.886088 79.568687 
L 300.90191 76.664646 
L 300.884328 73.760606 
L 300.855045 70.856566 
L 300.842132 67.952525 
L 300.852059 65.048485 
L 300.855331 62.144444 
L 300.804354 59.240404 
L 300.67348 56.336364 
L 300.494754 53.432323 
L 300.350436 50.528283 
L 300.309687 47.624242 
L 300.375177 44.720202 
L 300.49463 41.816162 
L 300.600137 38.912121 
L 300.645882 36.008081 
L 300.645135 33.10404 
L 300.659052 30.2 
L 301.259066 30.2 
L 301.259066 30.2 
L 301.272983 33.10404 
L 301.272237 36.008081 
L 301.317982 38.912121 
L 301.423489 41.816162 
L 301.542941 44.720202 
L 301.608432 47.624242 
L 301.567683 50.528283 
L 301.423365 53.432323 
L 301.244639 56.336364 
L 301.113764 59.240404 
L 301.062788 62.144444 
L 301.06606 65.048485 
L 301.075987 67.952525 
L 301.063073 70.856566 
L 301.033791 73.760606 
L 301.016209 76.664646 
L 301.03203 79.568687 
L 301.07826 82.472727 
L 301.126714 85.376768 
L 301.148232 88.280808 
L 301.144836 91.184848 
L 301.142809 94.088889 
L 301.149052 96.992929 
L 301.139517 99.89697 
L 301.099565 102.80101 
L 301.052243 105.705051 
L 301.044524 108.609091 
L 301.141855 111.513131 
L 301.464641 114.417172 
L 302.218313 117.321212 
L 303.633169 120.225253 
L 305.810625 123.129293 
L 308.623191 126.033333 
L 311.818565 128.937374 
L 315.315436 131.841414 
L 319.66917 134.745455 
L 326.418515 137.649495 
L 336.937506 140.553535 
L 349.22374 143.457576 
L 356.833807 146.361616 
L 354.424215 149.265657 
L 344.093076 152.169697 
L 333.017067 155.073737 
L 325.859467 157.977778 
L 322.29028 160.881818 
L 320.123887 163.785859 
L 317.964761 166.689899 
L 315.474378 169.593939 
L 312.947174 172.49798 
L 310.877509 175.40202 
L 309.458569 178.306061 
L 308.465418 181.210101 
L 307.630797 184.114141 
L 306.861021 187.018182 
L 306.032595 189.922222 
L 304.978926 192.826263 
L 303.824899 195.730303 
L 302.968565 198.634343 
L 302.627525 201.538384 
L 302.660837 204.442424 
L 302.824109 207.346465 
L 302.95368 210.250505 
L 302.909803 213.154545 
L 302.596424 216.058586 
L 302.103119 218.962626 
L 301.657384 221.866667 
L 301.398082 224.770707 
L 301.289478 227.674747 
L 301.235712 230.578788 
L 301.187443 233.482828 
L 301.139689 236.386869 
L 301.100069 239.290909 
L 301.084154 242.194949 
L 301.106529 245.09899 
L 301.159632 248.00303 
L 301.216689 250.907071 
L 301.25511 253.811111 
L 301.261943 256.715152 
L 301.231481 259.619192 
L 301.182961 262.523232 
L 301.163141 265.427273 
L 301.206387 268.331313 
L 301.305375 271.235354 
L 301.427721 274.139394 
L 301.530437 277.043434 
L 301.555278 279.947475 
L 301.465526 282.851515 
L 301.302214 285.755556 
L 301.155691 288.659596 
L 301.079149 291.563636 
L 301.062952 294.467677 
L 301.075071 297.371717 
L 301.090162 300.275758 
L 301.089877 303.179798 
L 301.067878 306.083838 
L 301.037968 308.987879 
L 301.020369 311.891919 
L 301.018715 314.79596 
L 301.018948 317.7 
z
" clip-path="url(#p9db996b98c)" style="fill: #da8555"/>
   </g>
   <g id="line2d_9">
    <path d="M 161.272191 147.986211 
L 161.272191 158.356295 
" clip-path="url(#p9db996b98c)" style="fill: none; stroke: #000000"/>
   </g>
   <g id="line2d_10">
    <path d="M 161.272191 146.652969 
L 161.272191 131.787961 
" clip-path="url(#p9db996b98c)" style="fill: none; stroke: #000000"/>
   </g>
   <g id="line2d_11">
    <path d="M 155.684716 158.356295 
L 166.859665 158.356295 
" clip-path="url(#p9db996b98c)" style="fill: none; stroke: #000000; stroke-linecap: round"/>
   </g>
   <g id="line2d_12">
    <path d="M 155.684716 131.787961 
L 166.859665 131.787961 
" clip-path="url(#p9db996b98c)" style="fill: none; stroke: #000000; stroke-linecap: round"/>
   </g>
   <g id="line2d_13">
    <path d="M 300.959059 161.466435 
L 300.959059 191.116579 
" clip-path="url(#p9db996b98c)" style="fill: none; stroke: #000000"/>
   </g>
   <g id="line2d_14">
    <path d="M 300.959059 146.516388 
L 300.959059 129.782375 
" clip-path="url(#p9db996b98c)" style="fill: none; stroke: #000000"/>
   </g>
   <g id="line2d_15">
    <path d="M 295.371585 191.116579 
L 306.546534 191.116579 
" clip-path="url(#p9db996b98c)" style="fill: none; stroke: #000000; stroke-linecap: round"/>
   </g>
   <g id="line2d_16">
    <path d="M 295.371585 129.782375 
L 306.546534 129.782375 
" clip-path="url(#p9db996b98c)" style="fill: none; stroke: #000000; stroke-linecap: round"/>
   </g>
   <g id="line2d_17">
    <path d="M 150.097241 147.288775 
L 172.44714 147.288775 
" clip-path="url(#p9db996b98c)" style="fill: none; stroke: #000000; stroke-width: 1.3"/>
   </g>
   <g id="line2d_18">
    <path d="M 289.78411 147.490093 
L 312.134009 147.490093 
" clip-path="url(#p9db996b98c)" style="fill: none; stroke: #000000; stroke-width: 1.3"/>
   </g>
   <g id="patch_3">
    <path d="M 92.825625 340.7 
L 92.825625 7.2 
" style="fill: none; stroke: #000000; stroke-width: 1.2; stroke-linejoin: miter; stroke-linecap: square"/>
   </g>
   <g id="patch_4">
    <path d="M 369.405625 340.7 
L 369.405625 7.2 
" style="fill: none; stroke: #000000; stroke-width: 1.2; stroke-linejoin: miter; stroke-linecap: square"/>
   </g>
   <g id="patch_5">
    <path d="M 92.825625 340.7 
L 369.405625 340.7 
" style="fill: none; stroke: #000000; stroke-width: 1.2; stroke-linejoin: miter; stroke-linecap: square"/>
   </g>
   <g id="patch_6">
    <path d="M 92.825625 7.2 
L 369.405625 7.2 
" style="fill: none; stroke: #000000; stroke-width: 1.2; stroke-linejoin: miter; stroke-linecap: square"/>
   </g>
   <g id="patch_7">
    <path d="M 150.097241 147.986211 
L 172.44714 147.986211 
L 172.44714 146.652969 
L 150.097241 146.652969 
L 150.097241 147.986211 
z
" clip-path="url(#p9db996b98c)" style="fill: #ffffff; stroke: #000000; stroke-linejoin: miter"/>
   </g>
   <g id="patch_8">
    <path d="M 289.78411 161.466435 
L 312.134009 161.466435 
L 312.134009 146.516388 
L 289.78411 146.516388 
L 289.78411 161.466435 
z
" clip-path="url(#p9db996b98c)" style="fill: #ffffff; stroke: #000000; stroke-linejoin: miter"/>
   </g>
   <g id="text_12">
    <g id="patch_9">
     <path d="M 101.123025 61.649375 
L 276.17615 61.649375 
Q 281.17615 61.649375 281.17615 56.649375 
L 281.17615 17.205 
Q 281.17615 12.205 276.17615 12.205 
L 101.123025 12.205 
Q 96.123025 12.205 96.123025 17.205 
L 96.123025 56.649375 
Q 96.123025 61.649375 101.123025 61.649375 
z
" style="fill: #ffffff; opacity: 0.9; stroke: #cccccc; stroke-linejoin: miter"/>
    </g>
    <text style="font-size: 20px; font-family: 'Arial'; fill: #262626" transform="translate(101.123025 31.520625)">X RMS = 0.440 mm</text>
    <text style="font-size: 20px; font-family: 'Arial'; fill: #262626" transform="translate(101.123025 52.674375)">Y RMS = 1.436 mm</text>
   </g>
   <g id="PathCollection_1">
    <defs>
     <path id="ma4149ba376" d="M 0 2.54951 
C 0.676138 2.54951 1.324674 2.280877 1.802776 1.802776 
C 2.280877 1.324674 2.54951 0.676138 2.54951 0 
C 2.54951 -0.676138 2.280877 -1.324674 1.802776 -1.802776 
C 1.324674 -2.280877 0.676138 -2.54951 0 -2.54951 
C -0.676138 -2.54951 -1.324674 -2.280877 -1.802776 -1.802776 
C -2.280877 -1.324674 -2.54951 -0.676138 -2.54951 0 
C -2.54951 0.676138 -2.280877 1.324674 -1.802776 1.802776 
C -1.324674 2.280877 -0.676138 2.54951 0 2.54951 
z
" style="stroke: #000000"/>
    </defs>
    <g clip-path="url(#p9db996b98c)">
     <use xlink:href="#ma4149ba376" x="161.272191" y="147.288775" style="stroke: #000000"/>
     <use xlink:href="#ma4149ba376" x="300.959059" y="147.490093" style="stroke: #000000"/>
    </g>
   </g>
  </g>
 </g>
 <defs>
  <clipPath id="p9db996b98c">
   <rect x="92.825625" y="7.2" width="276.58" height="333.5"/>
  </clipPath>
 </defs>
</svg>
