<?xml version="1.0" encoding="utf-8" standalone="no"?>
<!DOCTYPE svg PUBLIC "-//W3C//DTD SVG 1.1//EN"
  "http://www.w3.org/Graphics/SVG/1.1/DTD/svg11.dtd">
<svg xmlns:xlink="http://www.w3.org/1999/xlink" width="339.28125pt" height="382.941562pt" viewBox="0 0 339.28125 382.941562" xmlns="http://www.w3.org/2000/svg" version="1.1">
 <metadata>
  <rdf:RDF xmlns:dc="http://purl.org/dc/elements/1.1/" xmlns:cc="http://creativecommons.org/ns#" xmlns:rdf="http://www.w3.org/1999/02/22-rdf-syntax-ns#">
   <cc:Work>
    <dc:type rdf:resource="http://purl.org/dc/dcmitype/StillImage"/>
    <dc:date>2026-03-26T12:00:01.428838</dc:date>
    <dc:format>image/svg+xml</dc:format>
    <dc:creator>
     <cc:Agent>
      <dc:title>Matplotlib v3.10.1, https://matplotlib.org/</dc:title>
     </cc:Agent>
    </dc:creator>
   </cc:Work>
  </rdf:RDF>
 </metadata>
 <defs>
  <style type="text/css">*{stroke-linejoin: round; stroke-linecap: butt}</style>
 </defs>
 <g id="figure_1">
  <g id="patch_1">
   <path d="M 0 382.941562 
L 339.28125 382.941562 
L 339.28125 0 
L 0 0 
z
" style="fill: #ffffff"/>
  </g>
  <g id="axes_1">
   <g id="patch_2">
    <path d="M 70.00125 349.78 
L 332.08125 349.78 
L 332.08125 7.2 
L 70.00125 7.2 
z
" style="fill: #ffffff"/>
   </g>
   <g id="matplotlib.axis_1">
    <g id="xtick_1">
     <g id="text_1">
      <text style="font-size: 18px; font-family: 'Arial'; text-anchor: middle; fill: #262626" x="134.859432" y="372.164062" transform="rotate(-0 134.859432 372.164062)">X axis</text>
     </g>
    </g>
    <g id="xtick_2">
     <g id="text_2">
      <text style="font-size: 18px; font-family: 'Arial'; text-anchor: middle; fill: #262626" x="267.223068" y="372.164062" transform="rotate(-0 267.223068 372.164062)">Y axis</text>
     </g>
    </g>
   </g>
   <g id="matplotlib.axis_2">
    <g id="ytick_1">
     <g id="line2d_1">
      <path d="M 70.00125 340.984376 
L 332.08125 340.984376 
" clip-path="url(#p6ccbce37b9)" style="fill: none; stroke-dasharray: 2.96,1.28; stroke-dashoffset: 0; stroke: #cccccc; stroke-opacity: 0.35; stroke-width: 0.8"/>
     </g>
     <g id="text_3">
      <text style="font-size: 18px; font-family: 'Arial'; text-anchor: end; fill: #262626" x="60.50125" y="347.426407" transform="rotate(-0 60.50125 347.426407)">−10</text>
     </g>
    </g>
    <g id="ytick_2">
     <g id="line2d_2">
      <path d="M 70.00125 302.662698 
L 332.08125 302.662698 
" clip-path="url(#p6ccbce37b9)" style="fill: none; stroke-dasharray: 2.96,1.28; stroke-dashoffset: 0; stroke: #cccccc; stroke-opacity: 0.35; stroke-width: 0.8"/>
     </g>
     <g id="text_4">
      <text style="font-size: 18px; font-family: 'Arial'; text-anchor: end; fill: #262626" x="60.50125" y="309.10473" transform="rotate(-0 60.50125 309.10473)">−8</text>
     </g>
    </g>
    <g id="ytick_3">
     <g id="line2d_3">
      <path d="M 70.00125 264.341021 
L 332.08125 264.341021 
" clip-path="url(#p6ccbce37b9)" style="fill: none; stroke-dasharray: 2.96,1.28; stroke-dashoffset: 0; stroke: #cccccc; stroke-opacity: 0.35; stroke-width: 0.8"/>
     </g>
     <g id="text_5">
      <text style="font-size: 18px; font-family: 'Arial'; text-anchor: end; fill: #262626" x="60.50125" y="270.783052" transform="rotate(-0 60.50125 270.783052)">−6</text>
     </g>
    </g>
    <g id="ytick_4">
     <g id="line2d_4">
      <path d="M 70.00125 226.019343 
L 332.08125 226.019343 
" clip-path="url(#p6ccbce37b9)" style="fill: none; stroke-dasharray: 2.96,1.28; stroke-dashoffset: 0; stroke: #cccccc; stroke-opacity: 0.35; stroke-width: 0.8"/>
     </g>
     <g id="text_6">
      <text style="font-size: 18px; font-family: 'Arial'; text-anchor: end; fill: #262626" x="60.50125" y="232.461374" transform="rotate(-0 60.50125 232.461374)">−4</text>
     </g>
    </g>
    <g id="ytick_5">
     <g id="line2d_5">
      <path d="M 70.00125 187.697665 
L 332.08125 187.697665 
" clip-path="url(#p6ccbce37b9)" style="fill: none; stroke-dasharray: 2.96,1.28; stroke-dashoffset: 0; stroke: #cccccc; stroke-opacity: 0.35; stroke-width: 0.8"/>
     </g>
     <g id="text_7">
      <text style="font-size: 18px; font-family: 'Arial'; text-anchor: end; fill: #262626" x="60.50125" y="194.139696" transform="rotate(-0 60.50125 194.139696)">−2</text>
     </g>
    </g>
    <g id="ytick_6">
     <g id="line2d_6">
      <path d="M 70.00125 149.375988 
L 332.08125 149.375988 
" clip-path="url(#p6ccbce37b9)" style="fill: none; stroke-dasharray: 2.96,1.28; stroke-dashoffset: 0; stroke: #cccccc; stroke-opacity: 0.35; stroke-width: 0.8"/>
     </g>
     <g id="text_8">
      <text style="font-size: 18px; font-family: 'Arial'; text-anchor: end; fill: #262626" x="60.50125" y="155.818019" transform="rotate(-0 60.50125 155.818019)">0</text>
     </g>
    </g>
    <g id="ytick_7">
     <g id="line2d_7">
      <path d="M 70.00125 111.05431 
L 332.08125 111.05431 
" clip-path="url(#p6ccbce37b9)" style="fill: none; stroke-dasharray: 2.96,1.28; stroke-dashoffset: 0; stroke: #cccccc; stroke-opacity: 0.35; stroke-width: 0.8"/>
     </g>
     <g id="text_9">
      <text style="font-size: 18px; font-family: 'Arial'; text-anchor: end; fill: #262626" x="60.50125" y="117.496341" transform="rotate(-0 60.50125 117.496341)">2</text>
     </g>
    </g>
    <g id="ytick_8">
     <g id="line2d_8">
      <path d="M 70.00125 72.732632 
L 332.08125 72.732632 
" clip-path="url(#p6ccbce37b9)" style="fill: none; stroke-dasharray: 2.96,1.28; stroke-dashoffset: 0; stroke: #cccccc; stroke-opacity: 0.35; stroke-width: 0.8"/>
     </g>
     <g id="text_10">
      <text style="font-size: 18px; font-family: 'Arial'; text-anchor: end; fill: #262626" x="60.50125" y="79.174663" transform="rotate(-0 60.50125 79.174663)">4</text>
     </g>
    </g>
    <g id="ytick_9">
     <g id="line2d_9">
      <path d="M 70.00125 34.410954 
L 332.08125 34.410954 
" clip-path="url(#p6ccbce37b9)" style="fill: none; stroke-dasharray: 2.96,1.28; stroke-dashoffset: 0; stroke: #cccccc; stroke-opacity: 0.35; stroke-width: 0.8"/>
     </g>
     <g id="text_11">
      <text style="font-size: 18px; font-family: 'Arial'; text-anchor: end; fill: #262626" x="60.50125" y="40.852986" transform="rotate(-0 60.50125 40.852986)">6</text>
     </g>
    </g>
    <g id="text_12">
     <text style="font-size: 20px; font-family: 'Arial'; text-anchor: middle; fill: #262626" x="21.759375" y="178.49" transform="rotate(-90 21.759375 178.49)">Error (mm)</text>
    </g>
   </g>
   <g id="FillBetweenPolyCollection_1">
    <path d="M 134.89835 186.999888 
L 134.820514 186.999888 
L 134.827886 185.56037 
L 134.830643 184.120852 
L 134.802493 182.681334 
L 134.758557 181.241816 
L 134.739649 179.802298 
L 134.751829 178.36278 
L 134.74796 176.923262 
L 134.648722 175.483744 
L 134.447011 174.044226 
L 134.296812 172.604708 
L 134.261384 171.16519 
L 134.125588 169.725672 
L 133.713591 168.286154 
L 133.109305 166.846636 
L 132.605514 165.407118 
L 132.518002 163.9676 
L 132.628644 162.528083 
L 132.307396 161.088565 
L 131.561336 159.649047 
L 131.149619 158.209529 
L 131.251755 156.770011 
L 130.671582 155.330493 
L 126.51044 153.890975 
L 113.487001 152.451457 
L 92.508652 151.011939 
L 81.913977 149.572421 
L 94.999552 148.132903 
L 115.987137 146.693385 
L 127.541888 145.253867 
L 130.744239 143.814349 
L 131.352798 142.374831 
L 131.732406 140.935313 
L 132.214298 139.495795 
L 132.610122 138.056277 
L 132.899612 136.616759 
L 133.101501 135.177241 
L 133.117153 133.737723 
L 132.979903 132.298205 
L 132.969439 130.858687 
L 133.272092 129.419169 
L 133.700231 127.979651 
L 133.991475 126.540133 
L 134.103643 125.100615 
L 134.105352 123.661097 
L 134.054546 122.221579 
L 134.059224 120.782062 
L 134.218212 119.342544 
L 134.443141 117.903026 
L 134.586474 116.463508 
L 134.643039 115.02399 
L 134.701402 113.584472 
L 134.780867 112.144954 
L 134.835866 110.705436 
L 134.855358 109.265918 
L 134.859036 107.8264 
L 134.85941 106.386882 
L 134.859431 104.947364 
L 134.859432 103.507846 
L 134.859432 102.068328 
L 134.859432 100.62881 
L 134.859432 99.189292 
L 134.859432 97.749774 
L 134.859432 96.310256 
L 134.859432 94.870738 
L 134.859432 93.43122 
L 134.859432 91.991702 
L 134.859432 90.552184 
L 134.859432 89.112666 
L 134.859432 87.673148 
L 134.859432 86.23363 
L 134.859432 84.794112 
L 134.859432 83.354594 
L 134.859422 81.915076 
L 134.859219 80.475559 
L 134.856911 79.036041 
L 134.843283 77.596523 
L 134.803386 76.157005 
L 134.753998 74.717487 
L 134.751854 73.277969 
L 134.799865 71.838451 
L 134.841526 70.398933 
L 134.856509 68.959415 
L 134.859173 67.519897 
L 134.859419 66.080379 
L 134.859431 64.640861 
L 134.859432 63.201343 
L 134.859432 61.761825 
L 134.859432 60.322307 
L 134.859432 58.882789 
L 134.859432 57.443271 
L 134.859432 56.003753 
L 134.859432 54.564235 
L 134.859431 53.124717 
L 134.859415 51.685199 
L 134.85916 50.245681 
L 134.857058 48.806163 
L 134.848257 47.366645 
L 134.831126 45.927127 
L 134.820846 44.487609 
L 134.898018 44.487609 
L 134.898018 44.487609 
L 134.887738 45.927127 
L 134.870606 47.366645 
L 134.861806 48.806163 
L 134.859703 50.245681 
L 134.859449 51.685199 
L 134.859432 53.124717 
L 134.859432 54.564235 
L 134.859432 56.003753 
L 134.859432 57.443271 
L 134.859432 58.882789 
L 134.859432 60.322307 
L 134.859432 61.761825 
L 134.859432 63.201343 
L 134.859432 64.640861 
L 134.859444 66.080379 
L 134.859691 67.519897 
L 134.862355 68.959415 
L 134.877338 70.398933 
L 134.918998 71.838451 
L 134.96701 73.277969 
L 134.964865 74.717487 
L 134.915477 76.157005 
L 134.875581 77.596523 
L 134.861952 79.036041 
L 134.859645 80.475559 
L 134.859442 81.915076 
L 134.859432 83.354594 
L 134.859432 84.794112 
L 134.859432 86.23363 
L 134.859432 87.673148 
L 134.859432 89.112666 
L 134.859432 90.552184 
L 134.859432 91.991702 
L 134.859432 93.43122 
L 134.859432 94.870738 
L 134.859432 96.310256 
L 134.859432 97.749774 
L 134.859432 99.189292 
L 134.859432 100.62881 
L 134.859432 102.068328 
L 134.859432 103.507846 
L 134.859432 104.947364 
L 134.859453 106.386882 
L 134.859828 107.8264 
L 134.863505 109.265918 
L 134.882998 110.705436 
L 134.937997 112.144954 
L 135.017462 113.584472 
L 135.075824 115.02399 
L 135.13239 116.463508 
L 135.275722 117.903026 
L 135.500652 119.342544 
L 135.65964 120.782062 
L 135.664318 122.221579 
L 135.613512 123.661097 
L 135.615221 125.100615 
L 135.727389 126.540133 
L 136.018632 127.979651 
L 136.446772 129.419169 
L 136.749424 130.858687 
L 136.738961 132.298205 
L 136.601711 133.737723 
L 136.617362 135.177241 
L 136.819252 136.616759 
L 137.108742 138.056277 
L 137.504566 139.495795 
L 137.986457 140.935313 
L 138.366065 142.374831 
L 138.974624 143.814349 
L 142.176976 145.253867 
L 153.731727 146.693385 
L 174.719312 148.132903 
L 187.804886 149.572421 
L 177.210212 151.011939 
L 156.231863 152.451457 
L 143.208423 153.890975 
L 139.047282 155.330493 
L 138.467108 156.770011 
L 138.569244 158.209529 
L 138.157528 159.649047 
L 137.411468 161.088565 
L 137.09022 162.528083 
L 137.200862 163.9676 
L 137.11335 165.407118 
L 136.609559 166.846636 
L 136.005273 168.286154 
L 135.593276 169.725672 
L 135.45748 171.16519 
L 135.422051 172.604708 
L 135.271852 174.044226 
L 135.070141 175.483744 
L 134.970903 176.923262 
L 134.967035 178.36278 
L 134.979214 179.802298 
L 134.960307 181.241816 
L 134.916371 182.681334 
L 134.88822 184.120852 
L 134.890978 185.56037 
L 134.89835 186.999888 
z
" clip-path="url(#p6ccbce37b9)" style="fill: #4e73ae"/>
   </g>
   <g id="FillBetweenPolyCollection_2">
    <path d="M 267.279817 334.208182 
L 267.166319 334.208182 
L 267.16654 331.06236 
L 267.164973 327.916538 
L 267.148296 324.770716 
L 267.119955 321.624894 
L 267.099109 318.479073 
L 267.098838 315.333251 
L 267.113138 312.187429 
L 267.124622 309.041607 
L 267.109275 305.895785 
L 267.036745 302.749963 
L 266.897903 299.604141 
L 266.743154 296.45832 
L 266.658107 293.312498 
L 266.681645 290.166676 
L 266.778976 287.020854 
L 266.894909 283.875032 
L 266.988707 280.72921 
L 267.029685 277.583388 
L 267.010904 274.437567 
L 266.964929 271.291745 
L 266.936064 268.145923 
L 266.942538 265.000101 
L 266.978945 261.854279 
L 267.033011 258.708457 
L 267.08333 255.562635 
L 267.104532 252.416814 
L 267.089451 249.270992 
L 267.051908 246.12517 
L 267.006658 242.979348 
L 266.96092 239.833526 
L 266.909972 236.687704 
L 266.807061 233.541882 
L 266.561354 230.396061 
L 266.138987 227.250239 
L 265.671544 224.104417 
L 265.374594 220.958595 
L 265.333018 217.812773 
L 265.455795 214.666951 
L 265.610508 211.521129 
L 265.642074 208.375308 
L 265.318913 205.229486 
L 264.507473 202.083664 
L 263.413947 198.937842 
L 262.415518 195.79202 
L 261.630523 192.646198 
L 260.901103 189.500376 
L 260.110238 186.354555 
L 259.169154 183.208733 
L 257.824604 180.062911 
L 255.863443 176.917089 
L 253.46873 173.771267 
L 251.108909 170.625445 
L 249.062977 167.479624 
L 247.010159 164.333802 
L 243.628091 161.18798 
L 236.845736 158.042158 
L 226.350398 154.896336 
L 216.56088 151.750514 
L 214.277614 148.604692 
L 221.488714 145.458871 
L 233.13083 142.313049 
L 243.098351 139.167227 
L 249.493855 136.021405 
L 253.619339 132.875583 
L 256.932884 129.729761 
L 259.960737 126.583939 
L 262.625851 123.438118 
L 264.689152 120.292296 
L 266.029832 117.146474 
L 266.743992 114.000652 
L 267.049855 110.85483 
L 267.142084 107.709008 
L 267.13477 104.563186 
L 267.089929 101.417365 
L 267.052071 98.271543 
L 267.043037 95.125721 
L 267.048951 91.979899 
L 267.047031 88.834077 
L 267.043813 85.688255 
L 267.064203 82.542433 
L 267.110117 79.396612 
L 267.153923 76.25079 
L 267.168915 73.104968 
L 267.152254 69.959146 
L 267.124507 66.813324 
L 267.112271 63.667502 
L 267.121677 60.52168 
L 267.124778 57.375859 
L 267.076474 54.230037 
L 266.952461 51.084215 
L 266.783104 47.938393 
L 266.646353 44.792571 
L 266.60774 41.646749 
L 266.669797 38.500927 
L 266.782987 35.355106 
L 266.882963 32.209284 
L 266.926309 29.063462 
L 266.925602 25.91764 
L 266.938789 22.771818 
L 267.507347 22.771818 
L 267.507347 22.771818 
L 267.520534 25.91764 
L 267.519827 29.063462 
L 267.563174 32.209284 
L 267.663149 35.355106 
L 267.77634 38.500927 
L 267.838396 41.646749 
L 267.799784 44.792571 
L 267.663032 47.938393 
L 267.493676 51.084215 
L 267.369663 54.230037 
L 267.321358 57.375859 
L 267.324459 60.52168 
L 267.333866 63.667502 
L 267.321629 66.813324 
L 267.293882 69.959146 
L 267.277221 73.104968 
L 267.292214 76.25079 
L 267.33602 79.396612 
L 267.381933 82.542433 
L 267.402324 85.688255 
L 267.399106 88.834077 
L 267.397185 91.979899 
L 267.4031 95.125721 
L 267.394065 98.271543 
L 267.356207 101.417365 
L 267.311366 104.563186 
L 267.304052 107.709008 
L 267.396281 110.85483 
L 267.702145 114.000652 
L 268.416304 117.146474 
L 269.756985 120.292296 
L 271.820285 123.438118 
L 274.485399 126.583939 
L 277.513252 129.729761 
L 280.826797 132.875583 
L 284.952281 136.021405 
L 291.347785 139.167227 
L 301.315306 142.313049 
L 312.957422 145.458871 
L 320.168523 148.604692 
L 317.885257 151.750514 
L 308.095738 154.896336 
L 297.6004 158.042158 
L 290.818046 161.18798 
L 287.435977 164.333802 
L 285.383159 167.479624 
L 283.337228 170.625445 
L 280.977406 173.771267 
L 278.582694 176.917089 
L 276.621533 180.062911 
L 275.276982 183.208733 
L 274.335898 186.354555 
L 273.545033 189.500376 
L 272.815613 192.646198 
L 272.030618 195.79202 
L 271.032189 198.937842 
L 269.938663 202.083664 
L 269.127223 205.229486 
L 268.804063 208.375308 
L 268.835628 211.521129 
L 268.990341 214.666951 
L 269.113119 217.812773 
L 269.071542 220.958595 
L 268.774592 224.104417 
L 268.307149 227.250239 
L 267.884783 230.396061 
L 267.639075 233.541882 
L 267.536164 236.687704 
L 267.485217 239.833526 
L 267.439479 242.979348 
L 267.394228 246.12517 
L 267.356686 249.270992 
L 267.341604 252.416814 
L 267.362807 255.562635 
L 267.413125 258.708457 
L 267.467191 261.854279 
L 267.503598 265.000101 
L 267.510073 268.145923 
L 267.481208 271.291745 
L 267.435232 274.437567 
L 267.416451 277.583388 
L 267.45743 280.72921 
L 267.551228 283.875032 
L 267.66716 287.020854 
L 267.764491 290.166676 
L 267.788029 293.312498 
L 267.702982 296.45832 
L 267.548233 299.604141 
L 267.409391 302.749963 
L 267.336862 305.895785 
L 267.321514 309.041607 
L 267.332998 312.187429 
L 267.347298 315.333251 
L 267.347028 318.479073 
L 267.326181 321.624894 
L 267.29784 324.770716 
L 267.281164 327.916538 
L 267.279596 331.06236 
L 267.279817 334.208182 
z
" clip-path="url(#p6ccbce37b9)" style="fill: #da8555"/>
   </g>
   <g id="line2d_10">
    <path d="M 134.859432 150.364546 
L 134.859432 152.411885 
" clip-path="url(#p6ccbce37b9)" style="fill: none; stroke: #000000"/>
   </g>
   <g id="line2d_11">
    <path d="M 134.859432 148.920302 
L 134.859432 146.777932 
" clip-path="url(#p6ccbce37b9)" style="fill: none; stroke: #000000"/>
   </g>
   <g id="line2d_12">
    <path d="M 128.903068 152.411885 
L 140.815795 152.411885 
" clip-path="url(#p6ccbce37b9)" style="fill: none; stroke: #000000; stroke-linecap: round"/>
   </g>
   <g id="line2d_13">
    <path d="M 128.903068 146.777932 
L 140.815795 146.777932 
" clip-path="url(#p6ccbce37b9)" style="fill: none; stroke: #000000; stroke-linecap: round"/>
   </g>
   <g id="line2d_14">
    <path d="M 267.223068 164.967092 
L 267.223068 189.147256 
" clip-path="url(#p6ccbce37b9)" style="fill: none; stroke: #000000"/>
   </g>
   <g id="line2d_15">
    <path d="M 267.223068 148.772351 
L 267.223068 124.66295 
" clip-path="url(#p6ccbce37b9)" style="fill: none; stroke: #000000"/>
   </g>
   <g id="line2d_16">
    <path d="M 261.266705 189.147256 
L 273.179432 189.147256 
" clip-path="url(#p6ccbce37b9)" style="fill: none; stroke: #000000; stroke-linecap: round"/>
   </g>
   <g id="line2d_17">
    <path d="M 261.266705 124.66295 
L 273.179432 124.66295 
" clip-path="url(#p6ccbce37b9)" style="fill: none; stroke: #000000; stroke-linecap: round"/>
   </g>
   <g id="line2d_18">
    <path d="M 122.946705 149.609044 
L 146.772159 149.609044 
" clip-path="url(#p6ccbce37b9)" style="fill: none; stroke: #000000; stroke-width: 1.4"/>
   </g>
   <g id="line2d_19">
    <path d="M 255.310341 149.827123 
L 279.135795 149.827123 
" clip-path="url(#p6ccbce37b9)" style="fill: none; stroke: #000000; stroke-width: 1.4"/>
   </g>
   <g id="patch_3">
    <path d="M 70.00125 349.78 
L 70.00125 7.2 
" style="fill: none; stroke: #cccccc; stroke-width: 1.2; stroke-linejoin: miter; stroke-linecap: square"/>
   </g>
   <g id="patch_4">
    <path d="M 70.00125 349.78 
L 332.08125 349.78 
" style="fill: none; stroke: #cccccc; stroke-width: 1.2; stroke-linejoin: miter; stroke-linecap: square"/>
   </g>
   <g id="patch_5">
    <path d="M 122.946705 150.364546 
L 146.772159 150.364546 
L 146.772159 148.920302 
L 122.946705 148.920302 
L 122.946705 150.364546 
z
" clip-path="url(#p6ccbce37b9)" style="fill: #ffffff; stroke: #000000; stroke-width: 1.1; stroke-linejoin: miter"/>
   </g>
   <g id="patch_6">
    <path d="M 255.310341 164.967092 
L 279.135795 164.967092 
L 279.135795 148.772351 
L 255.310341 148.772351 
L 255.310341 164.967092 
z
" clip-path="url(#p6ccbce37b9)" style="fill: #ffffff; stroke: #000000; stroke-width: 1.1; stroke-linejoin: miter"/>
   </g>
   <g id="PathCollection_1">
    <defs>
     <path id="m00696411f6" d="M 0 2.44949 
C 0.649612 2.44949 1.272706 2.191396 1.732051 1.732051 
C 2.191396 1.272706 2.44949 0.649612 2.44949 0 
C 2.44949 -0.649612 2.191396 -1.272706 1.732051 -1.732051 
C 1.272706 -2.191396 0.649612 -2.44949 0 -2.44949 
C -0.649612 -2.44949 -1.272706 -2.191396 -1.732051 -1.732051 
C -2.191396 -1.272706 -2.44949 -0.649612 -2.44949 0 
C -2.44949 0.649612 -2.191396 1.272706 -1.732051 1.732051 
C -1.272706 2.191396 -0.649612 2.44949 0 2.44949 
z
" style="stroke: #000000"/>
    </defs>
    <g clip-path="url(#p6ccbce37b9)">
     <use xlink:href="#m00696411f6" x="134.859432" y="149.609044" style="stroke: #000000"/>
     <use xlink:href="#m00696411f6" x="267.223068" y="149.827123" style="stroke: #000000"/>
    </g>
   </g>
  </g>
 </g>
 <defs>
  <clipPath id="p6ccbce37b9">
   <rect x="70.00125" y="7.2" width="262.08" height="342.58"/>
  </clipPath>
 </defs>
</svg>
